HIERARCHY
ROOT Hips
{
	OFFSET 0.000000 0.000000 0.000000
	CHANNELS 6 Xposition Yposition Zposition Zrotation Yrotation Xrotation 
	JOINT LHipJoint
	{
		OFFSET 0.000000 0.000000 0.000000
		CHANNELS 3 Zrotation Yrotation Xrotation
		JOINT LeftUpLeg
		{
			OFFSET 1.363060 -1.794630 0.839290
			CHANNELS 3 Zrotation Yrotation Xrotation
			JOINT LeftLeg
			{
				OFFSET 2.448110 -6.726130 0.000000
				CHANNELS 3 Zrotation Yrotation Xrotation
				JOINT LeftFoot
				{
					OFFSET 2.562200 -7.039590 0.000000
					CHANNELS 3 Zrotation Yrotation Xrotation
					JOINT LeftToeBase
					{
						OFFSET 0.157640 -0.433110 2.322550
						CHANNELS 3 Zrotation Yrotation Xrotation
						End Site
						{
							OFFSET 0.000000 0.000000 0.000000
						}
					}
				}
			}
		}
	}
	JOINT RHipJoint
	{
		OFFSET 0.000000 0.000000 0.000000
		CHANNELS 3 Zrotation Yrotation Xrotation
		JOINT RightUpLeg
		{
			OFFSET -1.305520 -1.794630 0.839290
			CHANNELS 3 Zrotation Yrotation Xrotation
			JOINT RightLeg
			{
				OFFSET -2.542530 -6.985550 0.000000
				CHANNELS 3 Zrotation Yrotation Xrotation
				JOINT RightFoot
				{
					OFFSET -2.568260 -7.056230 0.000000
					CHANNELS 3 Zrotation Yrotation Xrotation
					JOINT RightToeBase
					{
						OFFSET -0.164730 -0.452590 2.363150
						CHANNELS 3 Zrotation Yrotation Xrotation
						End Site
						{
							OFFSET 0.000000 0.000000 0.000000
						}
					}
				}
			}
		}
	}
	JOINT LowerBack
	{
		OFFSET 0.000000 0.000000 0.000000
		CHANNELS 3 Zrotation Yrotation Xrotation
		JOINT Spine
		{
			OFFSET 0.028270 2.035590 -0.193380
			CHANNELS 3 Zrotation Yrotation Xrotation
			JOINT Spine1
			{
				OFFSET 0.056720 2.048850 -0.042750
				CHANNELS 3 Zrotation Yrotation Xrotation
				JOINT Neck
				{
					OFFSET 0.000000 0.000000 0.000000
					CHANNELS 3 Zrotation Yrotation Xrotation
					JOINT Neck1
					{
						OFFSET -0.054170 1.746240 0.172020
						CHANNELS 3 Zrotation Yrotation Xrotation
						JOINT Head
						{
							OFFSET 0.104070 1.761360 -0.123970
							CHANNELS 3 Zrotation Yrotation Xrotation
							End Site
							{
								OFFSET 0.000000 0.000000 0.000000
							}
						}
					}
				}
				JOINT LeftShoulder
				{
					OFFSET 0.000000 0.000000 0.000000
					CHANNELS 3 Zrotation Yrotation Xrotation
					JOINT LeftArm
					{
						OFFSET 3.362410 1.200890 -0.311210
						CHANNELS 3 Zrotation Yrotation Xrotation
						JOINT LeftForeArm
						{
							OFFSET 4.983000 -0.000000 -0.000000
							CHANNELS 3 Zrotation Yrotation Xrotation
							JOINT LeftHand
							{
								OFFSET 3.483560 -0.000000 -0.000000
								CHANNELS 3 Zrotation Yrotation Xrotation
								JOINT LeftFingerBase
								{
									OFFSET 0.000000 0.000000 0.000000
									CHANNELS 3 Zrotation Yrotation Xrotation
									JOINT LeftHandIndex1
									{
										OFFSET 0.715260 -0.000000 -0.000000
										CHANNELS 3 Zrotation Yrotation Xrotation
										End Site
										{
											OFFSET 0.000000 0.000000 0.000000
										}
									}
								}
								JOINT LThumb
								{
									OFFSET 0.000000 0.000000 0.000000
									CHANNELS 3 Zrotation Yrotation Xrotation
									End Site
									{
										OFFSET 0.000000 0.000000 0.000000
									}
								}
							}
						}
					}
				}
				JOINT RightShoulder
				{
					OFFSET 0.000000 0.000000 0.000000
					CHANNELS 3 Zrotation Yrotation Xrotation
					JOINT RightArm
					{
						OFFSET -3.136600 1.374050 -0.404650
						CHANNELS 3 Zrotation Yrotation Xrotation
						JOINT RightForeArm
						{
							OFFSET -5.241900 -0.000000 -0.000000
							CHANNELS 3 Zrotation Yrotation Xrotation
							JOINT RightHand
							{
								OFFSET -3.444170 -0.000000 -0.000000
								CHANNELS 3 Zrotation Yrotation Xrotation
								JOINT RightFingerBase
								{
									OFFSET 0.000000 0.000000 0.000000
									CHANNELS 3 Zrotation Yrotation Xrotation
									JOINT RightHandIndex1
									{
										OFFSET -0.622530 -0.000000 -0.000000
										CHANNELS 3 Zrotation Yrotation Xrotation
										End Site
										{
											OFFSET 0.000000 0.000000 0.000000
										}
									}
								}
								JOINT RThumb
								{
									OFFSET 0.000000 0.000000 0.000000
									CHANNELS 3 Zrotation Yrotation Xrotation
									End Site
									{
										OFFSET 0.000000 0.000000 0.000000
									}
								}
							}
						}
					}
				}
			}
		}
	}
}
MOTION
Frames: 6
Frame Time: 0.008333
9.209974 17.503972 7.156991 -5.055535 -7.567881 1.505624 -1.976425 2.268799 2.363354 -6.220281 5.025477 -24.039620 23.189393 19.141647 99.596971 -1.781445 8.629106 1.100006 0.157413 -2.556038 -7.045004 2.437904 -2.367308 1.014454 26.988471 19.989603 -14.722543 -3.894160 -12.373624 41.669666 -0.623780 -0.781944 -10.052610 -0.062731 1.612287 -4.435466 8.369325 -0.306426 11.240889 2.290095 0.913817 -2.178842 -0.965293 0.442847 -1.958746 -4.003621 4.018623 -11.184664 -0.776482 5.144488 -9.096637 -0.809732 2.270668 -0.960879 -3.723658 -2.438115 0.477901 -71.849971 27.352191 54.691881 104.312440 -58.545479 -72.050706 -0.342622 0.185123 -29.476847 36.243026 1.602658 0.876471 -7.125000 0.000000 0.000000 7.887239 31.398319 -2.647087 6.908779 2.069313 -0.300030 66.988453 -5.790645 45.871564 -90.589356 59.099601 -60.405954 0.294080 -0.926817 -8.535061 -51.625997 34.032220 -36.374831 7.125000 0.000000 0.000000 -9.497838 18.453071 -12.149924
9.207077 17.485927 7.299990 -4.608124 -7.876167 1.400799 -1.999352 2.142668 2.220689 -6.671282 4.887437 -24.786129 23.409448 19.131590 100.370934 -1.816546 8.833728 0.579476 0.160638 -2.582114 -7.117411 2.470651 -2.377285 1.085655 26.589817 20.028980 -14.246408 -3.948146 -12.393787 41.840746 -0.704955 -0.618161 -10.393009 -0.054393 1.498661 -4.122198 7.768700 -0.187274 11.397638 2.233613 0.993552 -2.140763 -0.798576 0.490270 -1.922303 -3.994615 4.048302 -11.194740 -0.754851 5.177977 -9.197410 -0.812997 2.283805 -0.993838 -3.724151 -2.426952 0.465646 -71.930517 27.901896 54.110652 103.077037 -58.732257 -71.013600 -0.341292 0.192334 -29.345413 36.507239 1.245340 0.612012 -7.125000 0.000000 0.000000 8.058917 30.949558 -2.794262 6.911014 2.064134 -0.265589 66.717161 -4.108666 46.179175 -90.848411 59.035288 -60.616932 0.284638 -0.926763 -8.148023 -51.769352 34.143967 -36.589694 7.125000 0.000000 0.000000 -9.526313 18.656213 -12.208173
9.204180 17.467881 7.442989 -4.160713 -8.184452 1.295975 -2.022279 2.016536 2.078025 -7.122283 4.749397 -25.532638 23.629502 19.121533 101.144896 -1.851646 9.038351 0.058946 0.163863 -2.608190 -7.189819 2.503398 -2.387262 1.156857 26.191163 20.068356 -13.770273 -4.002132 -12.413949 42.011826 -0.786131 -0.454378 -10.733408 -0.046055 1.385035 -3.808931 7.168075 -0.068121 11.554386 2.177130 1.073287 -2.102684 -0.631859 0.537693 -1.885860 -3.985609 4.077981 -11.204815 -0.733219 5.211467 -9.298184 -0.816261 2.296941 -1.026797 -3.724644 -2.415789 0.453391 -72.011063 28.451600 53.529423 101.841634 -58.919035 -69.976494 -0.339963 0.199544 -29.213979 36.771452 0.888022 0.347554 -7.125000 0.000000 0.000000 8.230595 30.500796 -2.941437 6.913250 2.058955 -0.231149 66.445868 -2.426687 46.486787 -91.107465 58.970975 -60.827909 0.275196 -0.926708 -7.760985 -51.912708 34.255715 -36.804557 7.125000 0.000000 0.000000 -9.554788 18.859356 -12.266421
9.200451 17.460892 7.597203 -3.438065 -8.468887 1.043004 -2.096176 1.912161 1.960412 -7.898504 4.568114 -26.086284 23.747302 19.090592 101.673191 -1.886242 9.252581 -0.507442 0.146075 -2.455208 -6.765871 2.560510 -2.417339 1.254064 25.471916 20.019951 -13.159186 -4.036476 -12.421682 42.114958 -0.876176 -0.259743 -10.998516 -0.036549 1.216355 -3.344508 6.294545 0.082064 11.715262 2.071273 1.152299 -2.053276 -0.455127 0.583166 -1.837161 -3.935863 4.089721 -11.211941 -0.661722 5.220909 -9.320551 -0.812446 2.296935 -1.034263 -3.731219 -2.403900 0.444621 -72.017585 29.034421 53.006492 100.694228 -59.071708 -69.019207 -0.343889 0.196981 -29.193180 36.912470 0.883693 0.346241 -7.125000 0.000000 0.000000 8.345034 30.494729 -2.984114 6.903718 2.052611 -0.198924 66.298692 -0.922810 46.710573 -91.523723 58.899617 -61.177539 0.265983 -0.928174 -7.368030 -52.034819 34.469575 -37.067846 7.125000 0.000000 0.000000 -9.533632 19.161762 -12.268975
9.196684 17.454394 7.751915 -2.703185 -8.752262 0.783449 -2.172339 1.808752 1.843912 -8.689179 4.384909 -26.631358 23.860557 19.058722 102.190568 -1.920815 9.467239 -1.075867 0.127354 -2.294267 -6.319862 2.618703 -2.448308 1.352427 24.738420 19.967644 -12.542101 -4.069947 -12.428863 42.215069 -0.966615 -0.063736 -11.260278 -0.026992 1.045228 -2.873367 5.408886 0.233629 11.876321 1.963220 1.231279 -2.003365 -0.277950 0.628552 -1.787918 -3.884307 4.100663 -11.218935 -0.588008 5.229282 -9.339434 -0.808316 2.296345 -1.040595 -3.738064 -2.391979 0.436005 -72.020818 29.618714 52.486151 99.550732 -59.222864 -68.065466 -0.348048 0.193983 -29.177298 37.048014 0.895053 0.356625 -7.125000 0.000000 0.000000 8.456929 30.508338 -3.022147 6.893664 2.046215 -0.166797 66.157033 0.573150 46.930633 -91.946967 58.827946 -61.533331 0.256780 -0.929707 -6.974812 -52.155986 34.687974 -37.333288 7.125000 0.000000 0.000000 -9.510269 19.468579 -12.269054
9.194978 17.452292 7.909529 -2.135321 -9.100906 0.532508 -2.219040 1.725110 1.735065 -9.304539 4.284875 -27.155212 23.961386 19.042218 102.637916 -1.931471 9.580216 -1.655154 0.107376 -2.101344 -5.786128 2.663004 -2.491655 1.452169 24.209614 19.965840 -11.839935 -4.094811 -12.423600 42.281896 -1.044555 0.096174 -11.517890 -0.023015 0.977214 -2.686078 4.732852 0.402140 12.033934 1.872285 1.358819 -1.958484 -0.169702 0.699234 -1.755523 -3.812341 4.099868 -11.194182 -0.536519 5.217820 -9.338433 -0.813912 2.286177 -1.045410 -3.742227 -2.380126 0.427048 -72.034661 30.230962 51.995316 98.469697 -59.358047 -67.164798 -0.352916 0.187708 -29.177005 37.088016 1.013061 0.448990 -7.125000 0.000000 0.000000 8.506408 30.658642 -3.009528 6.886842 2.042281 -0.136381 65.994291 1.962535 47.123779 -92.484223 58.748772 -61.993745 0.247606 -0.930783 -6.537957 -52.229513 34.841343 -37.507105 7.125000 0.000000 0.000000 -9.488474 19.675841 -12.261088
